<?xml version="1.0" encoding="utf-8"?>
<!-- Generator: Adobe Illustrator 27.5.0, SVG Export Plug-In . SVG Version: 6.00 Build 0)  -->
<svg version="1.1" id="Capa_1" xmlns="http://www.w3.org/2000/svg" xmlns:xlink="http://www.w3.org/1999/xlink" x="0px" y="0px"
	 viewBox="0 0 425.195 425.197" style="enable-background:new 0 0 425.195 425.197;" xml:space="preserve">
<rect style="fill:#55AEA3;" width="425.195" height="425.197"/>
<path style="fill:#4B998F;" d="M31.711,371.914c0,5.436,63.7,9.844,142.277,9.844c78.578,0,142.278-4.408,142.278-9.844
	c0-5.438-63.7-9.845-142.278-9.845C95.411,362.069,31.711,366.477,31.711,371.914z"/>
<g>
	<g>
		<rect x="206.492" y="134.365" style="fill:#FFFFFF;" width="157.111" height="216.535"/>
		<rect x="224.402" y="151.053" style="fill:#259DAB;" width="54.533" height="13.839"/>
		<rect x="224.402" y="170.183" style="fill:#DADADA;" width="53.859" height="6.92"/>
		<rect x="224.402" y="184.723" style="fill:#DADADA;" width="53.859" height="6.92"/>
		<rect x="224.402" y="196.674" style="fill:#DADADA;" width="53.859" height="6.919"/>
		<rect x="224.402" y="211.473" style="fill:#DADADA;" width="53.859" height="6.92"/>
		<rect x="224.402" y="271.53" style="fill:#DADADA;" width="120.479" height="6.92"/>
		<rect x="224.402" y="288.609" style="fill:#DADADA;" width="120.479" height="6.919"/>
		<rect x="224.402" y="300.204" style="fill:#F7DAA2;" width="35.044" height="26.369"/>
		<rect x="267.118" y="300.204" style="fill:#F7DAA2;" width="35.044" height="26.369"/>
		<rect x="309.836" y="300.204" style="fill:#F7DAA2;" width="35.045" height="26.369"/>
		<rect x="300.923" y="225.131" style="fill:#DADADA;" width="43.958" height="6.919"/>
		<rect x="300.923" y="237.393" style="fill:#DADADA;" width="43.958" height="6.918"/>
		<rect x="300.923" y="249.653" style="fill:#DADADA;" width="43.958" height="6.92"/>
		<rect x="224.402" y="225.131" style="fill:#61B9D9;" width="69.193" height="31.441"/>
		<rect x="293.596" y="151.053" style="fill:#61B9D9;" width="51.285" height="67.34"/>
		<g>
			<path style="fill:#352E35;" d="M344.794,218.393v-9.355c-2.779-2.261-17.284-6.677-17.284-6.677h-17.406
				c0,0-12.723,3.396-16.508,5.938v10.094H344.794z"/>
			<polygon style="fill:#FFFFFF;" points="323.316,218.393 328.689,202.744 308.773,202.744 315.105,218.393 			"/>
			<polygon style="fill:#231D22;" points="322.432,218.393 320.392,206.023 317.441,206.023 315.398,218.393 			"/>
			<path style="fill:#D99870;" d="M310.103,202.044c0,0,5.576,3.979,8.703,3.979c3.129,0,8.703-3.979,8.703-3.979l-0.733-5.531
				h-15.84L310.103,202.044z"/>
			<path style="fill:#FFFFFF;" d="M309.135,199.792l-0.361,2.952c0,0,6.906,3.825,10.033,3.825c3.129,0,9.883-3.825,9.883-3.825
				l-0.428-2.624l-9.455,5.247L309.135,199.792z"/>
			<path style="fill:#F9BB8D;" d="M334.637,169.605c0-6.762-5.83-14.141-16.182-14.141c-10.35,0-16.179,7.379-16.179,14.141
				c0,0.356,0.804,18.786,2.814,23.007c2.011,4.222,8.701,10.111,13.643,10.131c5.401,0.022,11.567-5.277,13.836-10.131
				C334.838,187.758,334.637,169.605,334.637,169.605z"/>
			<path style="fill:#F9BB8D;" d="M304.948,179.231c-0.308-1.543-1.776-2.979-3.79-2.539c-2.016,0.441-2.022,2.319-1.715,3.862
				c0.017,0.081,1.007,4.254,1.589,5.131c0.585,0.88,1.429,2.547,2.847,2.072c0.935-0.315,1.486-1.983,1.708-3.188
				C305.809,183.366,304.948,179.231,304.948,179.231z"/>
			<path style="fill:#F9BB8D;" d="M332.625,179.231c0.306-1.543,1.773-2.979,3.789-2.539c2.016,0.441,2.213,2.374,1.908,3.917
				c-0.018,0.081-1.089,3.942-1.592,5.131c-0.412,0.979-1.537,2.704-3,2.1c-0.916-0.377-1.523-2.066-1.745-3.27
				C331.764,183.366,332.625,179.231,332.625,179.231z"/>
			<path style="fill:#301B16;" d="M336.645,167.126c-1.053-4.643-7.838-13.35-18.19-13.35c-10.35,0-16.23,6.635-17.535,12.664
				c-1.006,4.643-0.847,7.283-0.621,10.594c0.967-0.425,1.59-0.631,2.395-0.311c0.147,1.971,0.344,4.287,0.572,6.393
				c0.537,0.82,1.122,0.577,1.122,0.577l1.235-14.509c0,0,21.576,10.983,26.326-0.21c0.689-1.628,1.178,14.247,1.178,14.247
				s0.805,0.739,1.129-0.519c0.142-1.99,0.084-3.552,0.275-5.388c0.109-1.059,1.375-0.694,2.404-0.457
				C337.318,174.098,337.701,171.769,336.645,167.126z"/>
			<path style="fill:#231D22;" d="M316.267,205.77c0,1.527,1.137,2.766,2.54,2.766c1.404,0,2.543-1.239,2.543-2.766
				c0-1.529-0.862-0.926-2.267-0.926C317.68,204.844,316.267,204.241,316.267,205.77z"/>
			<polygon style="fill:#D8CCC7;" points="321.22,187.708 318.852,189.948 318.852,180.001 			"/>
			<path style="fill:#D8CCC7;" d="M318.736,194.212c-1.508,0-2.256,0.47-3.214,0.47s-1.92-0.199-1.92-0.199s0.828,0.165,1.804,0.419
				c0.997,0.26,2.332-0.041,3.33-0.041c1.141,0,2.498,0.262,3.641-0.026c0.84-0.213,1.494-0.352,1.494-0.352
				s-0.939,0.167-1.87,0.167C321.07,194.65,320.246,194.212,318.736,194.212z"/>
			<g>
				<path style="fill:#301B16;" d="M327.514,183.369c-0.115,0.895-0.936,1.524-1.83,1.41c-0.892-0.116-1.522-0.934-1.408-1.829
					c0.116-0.894,0.935-1.524,1.829-1.409C326.998,181.657,327.629,182.476,327.514,183.369z"/>
				<path style="fill:#301B16;" d="M326.713,182.064c1.186,0.154,2.229,0.501,2.98,0.941c-0.387-0.792-1.5-1.463-2.89-1.644
					c-1.389-0.181-2.636,0.185-3.212,0.852C324.432,181.982,325.529,181.91,326.713,182.064z"/>
			</g>
			<g>
				<path style="fill:#301B16;" d="M310.055,183.42c0.164,0.886,1.016,1.473,1.9,1.308c0.887-0.163,1.475-1.014,1.311-1.9
					c-0.164-0.886-1.016-1.473-1.902-1.31C310.477,181.682,309.892,182.533,310.055,183.42z"/>
				<path style="fill:#301B16;" d="M310.783,182.072c-1.174,0.217-2.197,0.622-2.924,1.1c0.342-0.812,1.419-1.542,2.795-1.796
					c1.378-0.254,2.643,0.044,3.254,0.68C313.059,181.869,311.958,181.857,310.783,182.072z"/>
			</g>
			<path style="fill:#301B16;" d="M328.234,176.257c-1.408-0.398-3.119-0.268-3.272-0.12c-0.151,0.148-0.522,1.137-0.245,1.261
				c0.273,0.123,1.07-0.489,3.137-0.114c1.379,0.249,3.05,1.439,3.564,1.967C331.013,178.141,330.023,176.762,328.234,176.257z"/>
			<path style="fill:#301B16;" d="M309.797,176.257c1.409-0.398,3.12-0.268,3.273-0.12c0.15,0.148,0.52,1.137,0.246,1.261
				c-0.275,0.123-1.072-0.489-3.139-0.114c-1.378,0.249-3.05,1.439-3.565,1.967C307.017,178.141,308.01,176.762,309.797,176.257z"/>
		</g>
	</g>
	<g>
		<path style="fill:#352E35;" d="M61.592,368.051h237.637c0,0-4.682-78.266-12.48-87.008c-7.799-8.742-70.793-27.921-70.793-27.921
			h-70.209c0,0-66.352,17.707-70.624,27.921C70.85,291.258,61.592,368.051,61.592,368.051z"/>
		<polygon style="fill:#FFFFFF;" points="183.832,362.069 220.713,254.665 140.379,254.665 		"/>
		<polygon style="fill:#231D22;" points="183.832,362.069 196.626,324.808 187.244,267.892 175.34,267.892 166.756,319.864 		"/>
		<path style="fill:#D99870;" d="M145.746,251.84c0,0,22.492,16.052,35.104,16.052c12.617,0,35.105-16.052,35.105-16.052
			L213,229.534h-63.895L145.746,251.84z"/>
		<path style="fill:#FFFFFF;" d="M141.834,242.76l-1.455,11.905c0,0,27.859,15.43,40.471,15.43c12.617,0,39.863-15.43,39.863-15.43
			l-1.724-10.582l-38.14,21.162L141.834,242.76z"/>
		<path style="fill:#F9BB8D;" d="M244.7,120.997c0-27.272-23.512-57.043-65.267-57.043c-41.752,0-65.262,29.771-65.262,57.043
			c0,1.434,3.241,75.773,11.348,92.801c8.109,17.029,35.094,40.785,55.023,40.867c21.795,0.09,46.662-21.284,55.815-40.867
			C245.509,194.216,244.7,120.997,244.7,120.997z"/>
		<path style="fill:#F9BB8D;" d="M124.945,159.822c-1.235-6.225-7.16-12.017-15.289-10.239c-8.129,1.778-8.15,9.356-6.914,15.581
			c0.064,0.327,4.061,17.157,6.41,20.697c2.35,3.544,5.758,10.27,11.477,8.355c3.777-1.268,6.001-7.996,6.895-12.855
			C128.42,176.5,124.945,159.822,124.945,159.822z"/>
		<path style="fill:#F9BB8D;" d="M236.586,159.822c1.234-6.225,7.16-12.017,15.289-10.239c8.129,1.778,8.927,9.574,7.691,15.8
			c-0.066,0.327-4.392,15.9-6.414,20.698c-1.663,3.947-6.207,10.902-12.104,8.47c-3.693-1.523-6.146-8.332-7.041-13.191
			C233.111,176.5,236.586,159.822,236.586,159.822z"/>
		<path style="fill:#301B16;" d="M252.806,110.994c-4.256-18.729-31.617-53.849-73.372-53.849
			c-41.752,0-65.473,26.767-70.736,51.084c-4.055,18.728-3.416,29.378-2.499,42.734c3.896-1.716,6.411-2.546,9.657-1.257
			c0.59,7.951,1.383,17.289,2.307,25.786c2.168,3.311,4.521,2.329,4.521,2.329l4.988-58.525c0,0,87.031,44.302,106.188-0.852
			c2.783-6.562,4.759,57.469,4.759,57.469s3.245,2.977,4.549-2.094c0.573-8.026,0.337-14.329,1.107-21.734
			c0.443-4.269,5.547-2.797,9.707-1.842C255.521,139.12,257.063,129.722,252.806,110.994z"/>
		<path style="fill:#231D22;" d="M170.6,266.871c0,6.164,4.591,11.162,10.252,11.162c5.66,0,10.251-4.998,10.251-11.162
			c0-6.164-3.477-3.735-9.14-3.735C176.301,263.135,170.6,260.707,170.6,266.871z"/>
		<polygon style="fill:#D8CCC7;" points="190.578,194.015 181.031,203.051 181.031,162.93 		"/>
		<path style="fill:#D8CCC7;" d="M180.567,220.254c-6.083,0-9.106,1.895-12.969,1.895s-7.737-0.804-7.737-0.804
			s3.332,0.664,7.273,1.691c4.018,1.047,9.398-0.164,13.433-0.164c4.599,0,10.073,1.057,14.681-0.109
			c3.391-0.858,6.027-1.417,6.027-1.417s-3.783,0.675-7.543,0.675C189.975,222.021,186.652,220.254,180.567,220.254z"/>
		<g>
			<path style="fill:#301B16;" d="M215.969,176.517c-0.468,3.606-3.771,6.149-7.377,5.681c-3.605-0.467-6.15-3.769-5.682-7.374
				c0.467-3.608,3.77-6.15,7.375-5.681C213.892,169.609,216.438,172.911,215.969,176.517z"/>
			<path style="fill:#301B16;" d="M212.74,171.25c4.781,0.621,8.988,2.025,12.022,3.796c-1.56-3.196-6.054-5.903-11.655-6.63
				c-5.6-0.727-10.635,0.744-12.957,3.438C203.537,170.916,207.961,170.63,212.74,171.25z"/>
		</g>
		<g>
			<path style="fill:#301B16;" d="M145.545,176.718c0.66,3.575,4.094,5.939,7.668,5.28c3.578-0.661,5.941-4.092,5.283-7.669
				c-0.66-3.576-4.095-5.939-7.671-5.28C147.251,169.709,144.886,173.141,145.545,176.718z"/>
			<path style="fill:#301B16;" d="M148.486,171.285c-4.74,0.876-8.865,2.502-11.8,4.434c1.386-3.275,5.727-6.22,11.282-7.244
				c5.553-1.024,10.66,0.175,13.121,2.741C157.66,170.459,153.225,170.412,148.486,171.285z"/>
		</g>
		<path style="fill:#301B16;" d="M218.879,147.828c-5.684-1.605-12.586-1.081-13.201-0.485c-0.613,0.597-2.102,4.589-0.994,5.086
			c1.105,0.498,4.322-1.971,12.658-0.459c5.563,1.008,12.301,5.807,14.375,7.936C230.082,155.429,226.086,149.862,218.879,147.828z"
			/>
		<path style="fill:#301B16;" d="M144.504,147.828c5.684-1.605,12.585-1.081,13.2-0.485c0.616,0.597,2.1,4.589,0.995,5.086
			c-1.105,0.498-4.323-1.971-12.658-0.459c-5.563,1.008-12.3,5.807-14.375,7.936C133.3,155.429,137.297,149.862,144.504,147.828z"/>
	</g>
</g>
</svg>
